<svg xmlns="http://www.w3.org/2000/svg" xmlns:svg="http://www.w3.org/2000/svg" id="svg2" version="1.1" viewBox="0 0 36 36"><metadata id="metadata18"/><ellipse id="ellipse4" cx="21.249" cy="5.018" fill="#2B7BB9" rx=".944" ry="1.565" transform="rotate(-87.495 21.25 5.018)" style="stroke:#000;stroke-opacity:1"/><path id="path6" fill="#292F33" d="M29.831 27.74s3.523 1.385 5.185.088c.125-1.17-3.311-2.035-3.311-2.035l-1.874 1.947zM7.527 25.549S2.271 33.375.77 32.031c0 0-.425-1.397 1.23-4.218 1.656-2.822 5.527-2.264 5.527-2.264z" style="stroke:#000;stroke-opacity:1"/><path id="path8" fill="#1C6399" d="M19.766 4.82s-8.537.43-13.735 16.348c7.494 0 16.785.555 16.785.555s7.799 3.982 8.889 4.469c1.089.487 3.311 1.637 3.311 1.637s1.089-5.531.305-9.69S30.79 4.997 19.766 4.82z" style="stroke:#000;stroke-opacity:1;fill:#093a8e;fill-opacity:1"/><path id="path10" fill="#1C6399" d="M3.354 25.167C1.521 28.209.138 30.988.77 32.031c0 0-.203-.761.775-1.633.892-.795 2.805-1.522 6.461-1.522 5.534 0 13.006 4.498 16.119 5.562 2.375.812 2.875.188 4.188-1.25 1.4-1.534 3.716-6.904 3.716-6.904s-7.47-4.107-11.871-5.726-5.358-1.427-6.752-1.401c-3.056.057-5.314.671-7.375 2.011 0 0-1.494 2.036-2.677 3.999z" style="stroke:#000;stroke-opacity:1;fill:#34a853;fill-opacity:1"/><path id="path12" d="M 31.465119,11.377136 C 29.062746,7.2858305 26.577,6.263 26.577,6.263 24.682,5.38 22.419,4.815 19.713,4.772 c 0,0 -12.192,-0.105 -13.681,16.395 0,0 2.541,-1.115 7.92,-0.793 7.299,0.438 16.930949,5.261068 18.502949,5.956068 0.83,-2.779 1.252593,-11.36156 -0.98983,-14.952932 z" style="fill:#fbbc05;stroke:#000;stroke-opacity:1;fill-opacity:1"/><g id="layer2"><path id="path4268" d="M 14.137893,8.5091701 C 9.5818933,12.729878 7.5220906,20.470422 7.5220906,20.470422" style="fill:none;fill-rule:evenodd;stroke:#4285f4;stroke-width:3.88400006;stroke-linecap:butt;stroke-linejoin:bevel;stroke-miterlimit:4;stroke-dasharray:none;stroke-opacity:1"/><ellipse style="opacity:1;fill:#4285f4;fill-opacity:1;stroke:none;stroke-width:3.88400006;stroke-linecap:butt;stroke-linejoin:bevel;stroke-miterlimit:4;stroke-dasharray:none;stroke-opacity:1" id="path4271" cx="6.903" cy="20.25" rx=".725" ry=".496"/><ellipse style="opacity:1;fill:#4285f4;fill-opacity:1;stroke:none;stroke-width:3.88400006;stroke-linecap:butt;stroke-linejoin:bevel;stroke-miterlimit:4;stroke-dasharray:none;stroke-opacity:1" id="path4273" cx="14.32" cy="7.703" rx="1.697" ry="1.564"/><ellipse id="ellipse4275" cx="16.15" cy="6.636" rx="1.697" ry="1.564" style="opacity:1;fill:#4285f4;fill-opacity:1;stroke:none;stroke-width:3.88400006;stroke-linecap:butt;stroke-linejoin:bevel;stroke-miterlimit:4;stroke-dasharray:none;stroke-opacity:1"/><ellipse style="opacity:1;fill:#4285f4;fill-opacity:1;stroke:none;stroke-width:3.88400006;stroke-linecap:butt;stroke-linejoin:bevel;stroke-miterlimit:4;stroke-dasharray:none;stroke-opacity:1" id="ellipse4277" cx="18.267" cy="5.587" rx="1.182" ry=".744"/><path style="fill:none;fill-rule:evenodd;stroke:#ea4335;stroke-width:3.88400006;stroke-linecap:butt;stroke-linejoin:bevel;stroke-miterlimit:4;stroke-dasharray:none;stroke-opacity:1" id="path4279" d="m 25.578571,8.0896783 c 8.333831,6.1656237 4.596062,17.1858287 4.596062,17.1858287"/><path id="path4281" d="M 25.349757,7.0218817 C 29.309124,21.936242 28.318185,22.718965 28.458531,23.940761" style="fill:none;fill-rule:evenodd;stroke:#ea4335;stroke-width:3.88400006;stroke-linecap:butt;stroke-linejoin:bevel;stroke-miterlimit:4;stroke-dasharray:none;stroke-opacity:1"/><ellipse style="opacity:1;fill:#ea4335;fill-opacity:1;stroke:none;stroke-width:3.88400006;stroke-linecap:butt;stroke-linejoin:bevel;stroke-miterlimit:4;stroke-dasharray:none;stroke-opacity:1" id="path4283" cx="25.227" cy="7.169" rx="2.155" ry="1.525"/><ellipse id="ellipse4285" cx="23.492" cy="5.968" rx=".877" ry=".591" style="opacity:1;fill:#ea4335;fill-opacity:1;stroke:none;stroke-width:3.88400006;stroke-linecap:butt;stroke-linejoin:bevel;stroke-miterlimit:4;stroke-dasharray:none;stroke-opacity:1"/></g><g id="layer3" style="display:inline"><path style="fill:none;fill-opacity:1;stroke:#000;stroke-opacity:1" id="path4261" d="M 31.465119,11.377136 C 29.062746,7.2858305 26.577,6.263 26.577,6.263 24.682,5.38 22.419,4.815 19.713,4.772 c 0,0 -12.192,-0.105 -13.681,16.395 0,0 2.541,-1.115 7.92,-0.793 7.299,0.438 16.930949,5.261068 18.502949,5.956068 0.83,-2.779 1.252593,-11.36156 -0.98983,-14.952932 z"/><path style="fill:none;fill-rule:evenodd;stroke:#000;stroke-width:1px;stroke-linecap:butt;stroke-linejoin:miter;stroke-opacity:1" id="path4146" d="M 20.93644,5.0720339 C 12.673532,8.1923798 10.220339,20.097457 10.220339,20.097457"/><path style="fill:none;fill-rule:evenodd;stroke:#000;stroke-width:1px;stroke-linecap:butt;stroke-linejoin:miter;stroke-opacity:1" id="path4168" d="m 21.127118,4.9576271 c 5.401357,2.9751584 5.11017,18.4576279 5.11017,18.4576279"/></g><ellipse style="opacity:1;fill:#0a48ae;fill-opacity:1;stroke:#000;stroke-width:.19153413;stroke-miterlimit:4;stroke-dasharray:none;stroke-opacity:1" id="path4231" cx="21.344" cy="3.614" rx=".681" ry=".627"/><ellipse id="ellipse4233" cx="21.344" cy="2.886" rx=".681" ry=".627" style="opacity:1;fill:#fbbc05;fill-opacity:1;stroke:#000;stroke-width:.19153413;stroke-miterlimit:4;stroke-dasharray:none;stroke-opacity:1"/><ellipse style="opacity:1;fill:#ea4335;fill-opacity:1;stroke:#000;stroke-width:.19153413;stroke-miterlimit:4;stroke-dasharray:none;stroke-opacity:1" id="ellipse4235" cx="21.344" cy="2.131" rx=".681" ry=".627"/><ellipse style="opacity:1;fill:#0a48ae;fill-opacity:1;stroke:#000;stroke-width:.23909567;stroke-miterlimit:4;stroke-dasharray:none;stroke-opacity:1" id="path4227" cx="14.831" cy="1.564" rx="6.541" ry=".716"/><ellipse id="ellipse4229" cx="27.937" cy="1.618" rx="6.541" ry=".716" style="opacity:1;fill:#0a48ae;fill-opacity:1;stroke:#000;stroke-width:.23909567;stroke-miterlimit:4;stroke-dasharray:none;stroke-opacity:1"/><ellipse id="ellipse4237" cx="21.344" cy="1.295" rx=".681" ry=".627" style="opacity:1;fill:#34a853;fill-opacity:1;stroke:#000;stroke-width:.19153413;stroke-miterlimit:4;stroke-dasharray:none;stroke-opacity:1"/></svg>